<?xml version="1.0" encoding="UTF-8"?>
<!DOCTYPE svg PUBLIC "-//W3C//DTD SVG 1.1//EN" "http://www.w3.org/Graphics/SVG/1.1/DTD/svg11.dtd">
<svg xmlns="http://www.w3.org/2000/svg" version="1.1" width="130px" height="160px" style="shape-rendering:geometricPrecision; text-rendering:geometricPrecision; image-rendering:optimizeQuality; fill-rule:evenodd; clip-rule:evenodd" xmlns:xlink="http://www.w3.org/1999/xlink">
<g><path style="opacity:1" fill="#fbfbfb" d="M -0.5,-0.5 C 42.8333,-0.5 86.1667,-0.5 129.5,-0.5C 129.5,52.8333 129.5,106.167 129.5,159.5C 86.1667,159.5 42.8333,159.5 -0.5,159.5C -0.5,106.167 -0.5,52.8333 -0.5,-0.5 Z"/></g>
<g><path style="opacity:1" fill="#dc9991" d="M 61.5,9.5 C 51.5416,11.0818 47.8749,16.7484 50.5,26.5C 47.2186,26.5797 44.2186,25.913 41.5,24.5C 43.5,24.5 45.5,24.5 47.5,24.5C 47.4542,13.0451 53.1209,7.54507 64.5,8C 63.2625,8.23209 62.2625,8.73209 61.5,9.5 Z"/></g>
<g><path style="opacity:1" fill="#cd7c73" d="M 76.5,26.5 C 75.4324,27.4345 74.099,27.7678 72.5,27.5C 73.5958,23.5874 73.7625,19.5874 73,15.5C 72.2411,13.9371 71.0744,12.9371 69.5,12.5C 68.5707,11.6851 67.5707,10.8518 66.5,10C 70.578,9.71998 73.4113,11.5533 75,15.5C 75.7886,19.0915 75.6219,22.5915 74.5,26C 75.0944,26.4643 75.7611,26.631 76.5,26.5 Z"/></g>
<g><path style="opacity:1" fill="#c85a55" d="M 26.5,15.5 C 25.5084,15.3284 24.8417,15.6618 24.5,16.5C 23.5178,15.8592 22.5178,15.1925 21.5,14.5C 20.2035,21.5964 16.5368,27.0964 10.5,31C 12.0632,32.736 13.7299,34.236 15.5,35.5C 14.5084,35.3284 13.8417,35.6618 13.5,36.5C 11.3702,34.8729 9.37024,33.0396 7.5,31C 15.7646,26.6377 19.4312,19.8044 18.5,10.5C 22.1746,10.5003 24.8413,12.167 26.5,15.5 Z"/></g>
<g><path style="opacity:1" fill="#b82b1b" d="M 63.5,18.5 C 62.8335,23.0166 62.1669,27.6833 61.5,32.5C 60.5067,27.8804 60.1734,23.2137 60.5,18.5C 58.8333,18.5 57.1667,18.5 55.5,18.5C 54.596,17.791 54.2627,16.791 54.5,15.5C 56.5,15.5 58.5,15.5 60.5,15.5C 60.5,14.1667 60.5,12.8333 60.5,11.5C 61.5,11.5 62.5,11.5 63.5,11.5C 63.5,12.8333 63.5,14.1667 63.5,15.5C 65.5,15.5 67.5,15.5 69.5,15.5C 69.5,16.5 69.5,17.5 69.5,18.5C 67.5,18.5 65.5,18.5 63.5,18.5 Z"/></g>
<g><path style="opacity:1" fill="#f4f4b7" d="M 61.5,9.5 C 64.3229,10.2166 66.9896,11.2166 69.5,12.5C 71.0744,12.9371 72.2411,13.9371 73,15.5C 73.7625,19.5874 73.5958,23.5874 72.5,27.5C 71.4739,28.853 70.1405,29.853 68.5,30.5C 66.9582,31.3007 65.2915,31.634 63.5,31.5C 63.5,27.1667 63.5,22.8333 63.5,18.5C 65.5,18.5 67.5,18.5 69.5,18.5C 69.5,17.5 69.5,16.5 69.5,15.5C 67.5,15.5 65.5,15.5 63.5,15.5C 63.5,14.1667 63.5,12.8333 63.5,11.5C 62.5,11.5 61.5,11.5 60.5,11.5C 60.5,12.8333 60.5,14.1667 60.5,15.5C 58.5,15.5 56.5,15.5 54.5,15.5C 54.2627,16.791 54.596,17.791 55.5,18.5C 56.5676,19.4345 57.901,19.7678 59.5,19.5C 59.5,23.5 59.5,27.5 59.5,31.5C 58.1667,31.5 56.8333,31.5 55.5,31.5C 53.5968,30.0527 51.9301,28.386 50.5,26.5C 47.8749,16.7484 51.5416,11.0818 61.5,9.5 Z"/></g>
<g><path style="opacity:1" fill="#d8775c" d="M 55.5,18.5 C 57.1667,18.5 58.8333,18.5 60.5,18.5C 60.1734,23.2137 60.5067,27.8804 61.5,32.5C 62.1669,27.6833 62.8335,23.0166 63.5,18.5C 63.5,22.8333 63.5,27.1667 63.5,31.5C 65.2915,31.634 66.9582,31.3007 68.5,30.5C 68.7678,32.099 68.4345,33.4324 67.5,34.5C 64.023,33.6773 60.3563,33.1773 56.5,33C 55.944,32.6174 55.6107,32.1174 55.5,31.5C 56.8333,31.5 58.1667,31.5 59.5,31.5C 59.5,27.5 59.5,23.5 59.5,19.5C 57.901,19.7678 56.5676,19.4345 55.5,18.5 Z"/></g>
<g><path style="opacity:1" fill="#ca4945" d="M 107.5,44.5 C 107.158,43.6618 106.492,43.3284 105.5,43.5C 105.987,42.5266 106.487,41.5266 107,40.5C 110.633,37.6083 114.133,34.6083 117.5,31.5C 112.665,26.8318 109.665,21.1651 108.5,14.5C 101.424,19.037 94.0902,23.037 86.5,26.5C 84.3743,25.8968 82.0409,25.8968 79.5,26.5C 87.9774,23.9262 95.6441,19.7595 102.5,14C 105.626,13.0105 108.626,11.8438 111.5,10.5C 111.335,13.5184 111.502,16.5184 112,19.5C 114.2,24.5346 117.367,28.8679 121.5,32.5C 115.976,35.5812 111.31,39.5812 107.5,44.5 Z"/></g>
<g><path style="opacity:1" fill="#e5997f" d="M 69.5,36.5 C 70.6226,35.2426 71.2893,35.5759 71.5,37.5C 71.5,44.8333 71.5,52.1667 71.5,59.5C 71.1667,59.5 70.8333,59.5 70.5,59.5C 70.8254,51.6484 70.492,43.9818 69.5,36.5 Z"/></g>
<g><path style="opacity:1" fill="#c23127" d="M 26.5,15.5 C 31.2853,18.972 36.2853,21.972 41.5,24.5C 44.2186,25.913 47.2186,26.5797 50.5,26.5C 51.9301,28.386 53.5968,30.0527 55.5,31.5C 54.475,31.8966 54.3083,32.5632 55,33.5C 57.6696,35.0048 59.8363,37.0048 61.5,39.5C 63.5193,37.8103 65.5193,36.1436 67.5,34.5C 68.4345,33.4324 68.7678,32.099 68.5,30.5C 70.1405,29.853 71.4739,28.853 72.5,27.5C 74.099,27.7678 75.4324,27.4345 76.5,26.5C 77.5,26.5 78.5,26.5 79.5,26.5C 82.0409,25.8968 84.3743,25.8968 86.5,26.5C 82.5423,27.8261 78.5423,29.1594 74.5,30.5C 74.5,39.5 74.5,48.5 74.5,57.5C 73.6715,50.6787 73.1715,43.6787 73,36.5C 72.6174,37.056 72.1174,37.3893 71.5,37.5C 71.2893,35.5759 70.6226,35.2426 69.5,36.5C 67.0891,39.1857 64.5891,41.8524 62,44.5C 58.7143,42.2178 55.7143,39.5511 53,36.5C 52.1685,44.1883 52.3352,51.855 53.5,59.5C 59.1558,61.8368 64.8224,61.8368 70.5,59.5C 70.8333,59.5 71.1667,59.5 71.5,59.5C 71.3893,60.1174 71.056,60.6174 70.5,61C 67.5285,61.7943 64.5285,62.461 61.5,63C 60.244,63.4169 59.5774,64.2502 59.5,65.5C 54.172,64.5008 48.8387,63.5008 43.5,62.5C 40.3703,60.9774 37.037,60.3107 33.5,60.5C 31.8333,59.8333 30.1667,59.1667 28.5,58.5C 28.7148,56.8212 28.0481,55.8212 26.5,55.5C 27.9187,54.5489 29.5853,54.2155 31.5,54.5C 31.5,55.8333 31.5,57.1667 31.5,58.5C 34.2469,58.8134 36.9135,58.48 39.5,57.5C 37.6253,56.5905 36.292,55.2572 35.5,53.5C 39.3017,55.3995 43.3017,56.7328 47.5,57.5C 47.56,58.0431 47.8933,58.3764 48.5,58.5C 49.8218,49.3418 49.8218,40.3418 48.5,31.5C 48.5299,30.5028 48.0299,29.8361 47,29.5C 38.126,27.3203 30.626,22.987 24.5,16.5C 24.8417,15.6618 25.5084,15.3284 26.5,15.5 Z"/></g>
<g><path style="opacity:1" fill="#eddcac" d="M 55.5,31.5 C 55.6107,32.1174 55.944,32.6174 56.5,33C 60.3563,33.1773 64.023,33.6773 67.5,34.5C 65.5193,36.1436 63.5193,37.8103 61.5,39.5C 59.8363,37.0048 57.6696,35.0048 55,33.5C 54.3083,32.5632 54.475,31.8966 55.5,31.5 Z"/></g>
<g><path style="opacity:1" fill="#f2a68d" d="M 48.5,31.5 C 49.8218,40.3418 49.8218,49.3418 48.5,58.5C 47.8933,58.3764 47.56,58.0431 47.5,57.5C 48.493,49.0161 48.8264,40.3494 48.5,31.5 Z"/></g>
<g><path style="opacity:1" fill="#f3f2b6" d="M 24.5,16.5 C 30.626,22.987 38.126,27.3203 47,29.5C 48.0299,29.8361 48.5299,30.5028 48.5,31.5C 48.8264,40.3494 48.493,49.0161 47.5,57.5C 43.3017,56.7328 39.3017,55.3995 35.5,53.5C 33.901,53.7678 32.5676,53.4345 31.5,52.5C 28.9799,51.8115 26.4799,50.8115 24,49.5C 22.9615,43.6523 20.1281,38.9857 15.5,35.5C 13.7299,34.236 12.0632,32.736 10.5,31C 16.5368,27.0964 20.2035,21.5964 21.5,14.5C 22.5178,15.1925 23.5178,15.8592 24.5,16.5 Z"/></g>
<g><path style="opacity:1" fill="#c0422c" d="M 31.5,28.5 C 36.0344,30.7949 40.3678,33.4616 44.5,36.5C 43.2713,37.2811 41.938,37.7811 40.5,38C 39.793,40.5428 38.4597,42.7095 36.5,44.5C 35.9641,41.1838 36.9641,38.1838 39.5,35.5C 38.0186,34.5197 36.6853,33.353 35.5,32C 30.5094,31.5628 30.176,32.7294 34.5,35.5C 33.132,36.5937 31.9653,36.2603 31,34.5C 30.3076,35.0253 29.8076,35.6919 29.5,36.5C 31.1392,37.916 31.9725,39.5826 32,41.5C 29.8627,40.5214 28.0294,39.1881 26.5,37.5C 27.9252,34.3116 29.5919,31.3116 31.5,28.5 Z"/></g>
<g><path style="opacity:1" fill="#ba3921" d="M 24.5,24.5 C 25.3764,24.3691 26.0431,24.7025 26.5,25.5C 25.1667,27.8333 23.8333,30.1667 22.5,32.5C 26.6554,35.8268 26.3221,36.6601 21.5,35C 20.9415,34.2753 20.6082,33.4419 20.5,32.5C 22.2615,30.0649 23.5948,27.3983 24.5,24.5 Z"/></g>
<g><path style="opacity:1" fill="#f6f5cc" d="M 69.5,36.5 C 70.492,43.9818 70.8254,51.6484 70.5,59.5C 64.8224,61.8368 59.1558,61.8368 53.5,59.5C 52.3352,51.855 52.1685,44.1883 53,36.5C 55.7143,39.5511 58.7143,42.2178 62,44.5C 64.5891,41.8524 67.0891,39.1857 69.5,36.5 Z"/></g>
<g><path style="opacity:1" fill="#f3f2b7" d="M 105.5,43.5 C 103.394,45.7188 102.394,48.3855 102.5,51.5C 93.0212,52.8833 83.6879,54.8833 74.5,57.5C 74.5,48.5 74.5,39.5 74.5,30.5C 78.5423,29.1594 82.5423,27.8261 86.5,26.5C 94.0902,23.037 101.424,19.037 108.5,14.5C 109.665,21.1651 112.665,26.8318 117.5,31.5C 114.133,34.6083 110.633,37.6083 107,40.5C 106.487,41.5266 105.987,42.5266 105.5,43.5 Z"/></g>
<g><path style="opacity:1" fill="#ae3820" d="M 86.5,31.5 C 92.7402,31.2939 95.2402,34.2939 94,40.5C 91.0024,44.3678 88.3357,44.0345 86,39.5C 85.2782,36.7395 85.4448,34.0728 86.5,31.5 Z"/></g>
<g><path style="opacity:1" fill="#cb4f37" d="M 81.5,34.5 C 82.9937,37.9414 84.327,41.608 85.5,45.5C 84.675,46.3857 83.675,46.719 82.5,46.5C 82.6495,45.448 82.4828,44.448 82,43.5C 79.9912,41.9895 78.1579,40.3229 76.5,38.5C 77.868,37.4063 79.0347,37.7397 80,39.5C 80.3519,37.7525 80.8519,36.0858 81.5,34.5 Z"/></g>
<g><path style="opacity:1" fill="#b94429" d="M 97.5,26.5 C 100.489,27.9412 102.156,30.4412 102.5,34C 102.457,36.3759 101.291,37.8759 99,38.5C 95.7407,35.629 93.9074,32.2957 93.5,28.5C 95.6972,30.3582 97.0305,32.6916 97.5,35.5C 98.5,35.5 99.5,35.5 100.5,35.5C 100.336,32.1826 99.3357,29.1826 97.5,26.5 Z"/></g>
<g><path style="opacity:1" fill="#ece6b4" d="M 87.5,33.5 C 91.8004,33.8153 93.467,36.1486 92.5,40.5C 90.8561,40.7135 89.3561,40.3802 88,39.5C 87.5045,37.5273 87.3379,35.5273 87.5,33.5 Z"/></g>
<g><path style="opacity:1" fill="#c84934" d="M 104.5,21.5 C 108.667,21.8462 110.5,24.1795 110,28.5C 110.925,29.0465 111.758,29.7132 112.5,30.5C 110.635,31.6662 108.968,31.3329 107.5,29.5C 107.003,31.216 106.669,32.8827 106.5,34.5C 104.593,31.691 102.926,28.691 101.5,25.5C 102.286,23.9589 103.286,22.6256 104.5,21.5 Z"/></g>
<g><path style="opacity:1" fill="#f0dfb2" d="M 104.5,24.5 C 106.048,24.8212 106.715,25.8212 106.5,27.5C 103.752,27.5983 103.086,26.5983 104.5,24.5 Z"/></g>
<g><path style="opacity:1" fill="#ce151a" d="M 31.5,52.5 C 32.5676,53.4345 33.901,53.7678 35.5,53.5C 36.292,55.2572 37.6253,56.5905 39.5,57.5C 36.9135,58.48 34.2469,58.8134 31.5,58.5C 31.5,57.1667 31.5,55.8333 31.5,54.5C 29.5853,54.2155 27.9187,54.5489 26.5,55.5C 25.8485,56.0906 25.1818,56.7573 24.5,57.5C 23.1667,55.5 23.1667,53.5 24.5,51.5C 26.7466,52.3742 29.0799,52.7076 31.5,52.5 Z"/></g>
<g><path style="opacity:1" fill="#c9413c" d="M 15.5,35.5 C 20.1281,38.9857 22.9615,43.6523 24,49.5C 26.4799,50.8115 28.9799,51.8115 31.5,52.5C 29.0799,52.7076 26.7466,52.3742 24.5,51.5C 23.1667,53.5 23.1667,55.5 24.5,57.5C 25.1818,56.7573 25.8485,56.0906 26.5,55.5C 28.0481,55.8212 28.7148,56.8212 28.5,58.5C 27.1667,58.5 25.8333,58.5 24.5,58.5C 23.7632,67.8766 20.9299,76.5433 16,84.5C 12.9369,93.4698 12.7703,102.47 15.5,111.5C 16.2632,113.368 17.2632,115.035 18.5,116.5C 20.9155,120.422 23.9155,123.922 27.5,127C 36.3834,131.342 45.3834,135.176 54.5,138.5C 54.3505,139.552 54.5172,140.552 55,141.5C 57.5104,142.109 59.5104,143.442 61,145.5C 61.3333,145.167 61.6667,144.833 62,144.5C 63.1882,145.563 63.6882,146.897 63.5,148.5C 62.791,149.404 61.791,149.737 60.5,149.5C 53.2887,142.054 44.6221,136.888 34.5,134C 17.1405,125.609 9.30718,111.775 11,92.5C 13.1854,85.1315 16.1854,78.1315 20,71.5C 20.8215,68.8832 21.3215,66.2165 21.5,63.5C 22.1627,61.5274 22.4961,59.3608 22.5,57C 22.6725,53.5226 22.0058,50.356 20.5,47.5C 18.9302,43.3633 16.5968,39.6967 13.5,36.5C 13.8417,35.6618 14.5084,35.3284 15.5,35.5 Z"/></g>
<g><path style="opacity:1" fill="#f8bcb9" d="M 20.5,47.5 C 22.0058,50.356 22.6725,53.5226 22.5,57C 22.4961,59.3608 22.1627,61.5274 21.5,63.5C 21.6079,58.1301 21.2745,52.7968 20.5,47.5 Z"/></g>
<g><path style="opacity:1" fill="#c61319" d="M 74.5,57.5 C 75.7933,58.1582 77.2933,58.4915 79,58.5C 82.7711,57.202 86.6044,56.702 90.5,57C 90.8333,57.3333 91.1667,57.6667 91.5,58C 89.6763,58.66 88.343,59.8267 87.5,61.5C 80.2477,62.6071 72.9143,63.4405 65.5,64C 64.9558,64.7172 64.2891,65.2172 63.5,65.5C 62.1667,65.5 60.8333,65.5 59.5,65.5C 59.5774,64.2502 60.244,63.4169 61.5,63C 64.5285,62.461 67.5285,61.7943 70.5,61C 71.056,60.6174 71.3893,60.1174 71.5,59.5C 71.5,52.1667 71.5,44.8333 71.5,37.5C 72.1174,37.3893 72.6174,37.056 73,36.5C 73.1715,43.6787 73.6715,50.6787 74.5,57.5 Z"/></g>
<g><path style="opacity:1" fill="#c14e3f" d="M 59.5,65.5 C 60.8333,65.5 62.1667,65.5 63.5,65.5C 63.5,67.5 63.5,69.5 63.5,71.5C 62.5,71.5 61.5,71.5 60.5,71.5C 60.7845,73.4147 60.4511,75.0813 59.5,76.5C 59.5,72.8333 59.5,69.1667 59.5,65.5 Z"/></g>
<g><path style="opacity:1" fill="#d16957" d="M 28.5,67.5 C 28.5,69.5 28.5,71.5 28.5,73.5C 29.5,73.5 30.5,73.5 31.5,73.5C 31.2011,71.396 31.5344,69.396 32.5,67.5C 33.865,68.8069 35.1984,68.8069 36.5,67.5C 37.3764,67.3691 38.0431,67.7025 38.5,68.5C 37.2634,69.2807 36.2634,70.2807 35.5,71.5C 36.8262,72.6422 37.8262,73.9755 38.5,75.5C 36.857,75.5198 35.5237,74.8532 34.5,73.5C 33.7025,73.9569 33.3691,74.6236 33.5,75.5C 31.1667,75.5 28.8333,75.5 26.5,75.5C 25.9644,72.3019 26.631,69.6353 28.5,67.5 Z"/></g>
<g><path style="opacity:1" fill="#d05a57" d="M 47.5,75.5 C 46.1411,74.9935 45.1411,73.9935 44.5,72.5C 43.8333,73.5 43.1667,74.5 42.5,75.5C 41.52,72.9135 41.1866,70.2469 41.5,67.5C 42.8589,68.0065 43.8589,69.0065 44.5,70.5C 46.0807,67.1068 48.7474,65.7735 52.5,66.5C 52.1558,69.5623 51.4891,72.5623 50.5,75.5C 48.8864,67.6019 47.8864,67.6019 47.5,75.5 Z"/></g>
<g><path style="opacity:1" fill="#c86950" d="M 92.5,75.5 C 91.1667,75.5 89.8333,75.5 88.5,75.5C 88.5,72.8333 88.5,70.1667 88.5,67.5C 90.0418,66.6993 91.7085,66.366 93.5,66.5C 93.9193,69.3245 92.9193,71.4912 90.5,73C 91.624,73.2492 92.624,73.7492 93.5,74.5C 93.3764,75.1067 93.0431,75.44 92.5,75.5 Z"/></g>
<g><path style="opacity:1" fill="#f7f3cc" d="M 33.5,60.5 C 37.037,60.3107 40.3703,60.9774 43.5,62.5C 42.3915,63.29 41.0581,63.79 39.5,64C 43.2054,64.4217 43.8721,65.5884 41.5,67.5C 41.1866,70.2469 41.52,72.9135 42.5,75.5C 43.1667,74.5 43.8333,73.5 44.5,72.5C 45.1411,73.9935 46.1411,74.9935 47.5,75.5C 46.828,76.2674 45.9947,76.9341 45,77.5C 43.8173,76.269 42.6507,76.269 41.5,77.5C 43.1083,78.3184 44.7749,78.9851 46.5,79.5C 47.1667,84.5 47.8333,89.5 48.5,94.5C 49.855,92.4765 50.1883,90.4765 49.5,88.5C 51.7138,87.9594 53.8805,87.6261 56,87.5C 56.1829,90.3647 56.6829,93.0314 57.5,95.5C 57.8214,101.026 57.4881,106.36 56.5,111.5C 55.8333,116.833 55.1667,122.167 54.5,127.5C 54.5,122.167 54.5,116.833 54.5,111.5C 53.5,111.5 52.5,111.5 51.5,111.5C 52.1128,105.729 51.4461,100.396 49.5,95.5C 48.8333,95.5 48.1667,95.5 47.5,95.5C 42.1759,94.2963 36.8426,94.2963 31.5,95.5C 31.5,99.8333 31.5,104.167 31.5,108.5C 36.422,108.87 41.0886,109.87 45.5,111.5C 39.8333,111.5 34.1667,111.5 28.5,111.5C 29.4491,106.26 29.7825,100.927 29.5,95.5C 28.5,95.5 27.5,95.5 26.5,95.5C 26.5,94.1667 26.5,92.8333 26.5,91.5C 28.1238,91.6399 29.2904,90.9733 30,89.5C 30.3333,89.8333 30.6667,90.1667 31,90.5C 31.8141,88.0982 31.6474,85.7649 30.5,83.5C 28.7227,82.099 27.056,80.599 25.5,79C 26,78.5 26.5,78 27,77.5C 29.7961,78.734 31.9628,78.0673 33.5,75.5C 33.3691,74.6236 33.7025,73.9569 34.5,73.5C 35.5237,74.8532 36.857,75.5198 38.5,75.5C 39.6946,75.1344 40.3613,74.301 40.5,73C 39.7135,70.9011 39.3801,68.7345 39.5,66.5C 38.209,66.2627 37.209,66.596 36.5,67.5C 35.1984,68.8069 33.865,68.8069 32.5,67.5C 31.5344,69.396 31.2011,71.396 31.5,73.5C 30.5,73.5 29.5,73.5 28.5,73.5C 28.5,71.5 28.5,69.5 28.5,67.5C 30.1407,65.7425 32.1407,64.2425 34.5,63C 33.2161,62.3162 32.0495,62.4829 31,63.5C 30.5172,62.552 30.3505,61.552 30.5,60.5C 31.5,60.5 32.5,60.5 33.5,60.5 Z"/></g>
<g><path style="opacity:1" fill="#c39173" d="M 36.5,67.5 C 37.209,66.596 38.209,66.2627 39.5,66.5C 39.3801,68.7345 39.7135,70.9011 40.5,73C 40.3613,74.301 39.6946,75.1344 38.5,75.5C 37.8262,73.9755 36.8262,72.6422 35.5,71.5C 36.2634,70.2807 37.2634,69.2807 38.5,68.5C 38.0431,67.7025 37.3764,67.3691 36.5,67.5 Z"/></g>
<g><path style="opacity:1" fill="#f7f8e7" d="M 43.5,62.5 C 48.8387,63.5008 54.172,64.5008 59.5,65.5C 59.5,69.1667 59.5,72.8333 59.5,76.5C 58.3639,82.641 57.6972,88.9744 57.5,95.5C 56.6829,93.0314 56.1829,90.3647 56,87.5C 53.8805,87.6261 51.7138,87.9594 49.5,88.5C 50.1883,90.4765 49.855,92.4765 48.5,94.5C 47.8333,89.5 47.1667,84.5 46.5,79.5C 44.7749,78.9851 43.1083,78.3184 41.5,77.5C 42.6507,76.269 43.8173,76.269 45,77.5C 45.9947,76.9341 46.828,76.2674 47.5,75.5C 47.8864,67.6019 48.8864,67.6019 50.5,75.5C 51.4891,72.5623 52.1558,69.5623 52.5,66.5C 48.7474,65.7735 46.0807,67.1068 44.5,70.5C 43.8589,69.0065 42.8589,68.0065 41.5,67.5C 43.8721,65.5884 43.2054,64.4217 39.5,64C 41.0581,63.79 42.3915,63.29 43.5,62.5 Z"/></g>
<g><path style="opacity:1" fill="#c2322c" d="M 105.5,43.5 C 106.492,43.3284 107.158,43.6618 107.5,44.5C 105.789,47.9621 104.455,51.6288 103.5,55.5C 105.923,67.5927 109.423,79.2593 114,90.5C 114.944,97.7495 114.444,104.75 112.5,111.5C 112.167,111.5 111.833,111.5 111.5,111.5C 111.5,109.167 111.5,106.833 111.5,104.5C 111.5,100.167 111.5,95.8333 111.5,91.5C 110.736,88.9823 109.736,86.649 108.5,84.5C 107.303,80.3703 105.803,76.3703 104,72.5C 103.263,68.1296 102.43,63.7962 101.5,59.5C 99.5,59.8333 97.5,60.1667 95.5,60.5C 92.8333,60.8333 90.1667,61.1667 87.5,61.5C 88.343,59.8267 89.6763,58.66 91.5,58C 91.1667,57.6667 90.8333,57.3333 90.5,57C 86.6044,56.702 82.7711,57.202 79,58.5C 77.2933,58.4915 75.7933,58.1582 74.5,57.5C 83.6879,54.8833 93.0212,52.8833 102.5,51.5C 102.394,48.3855 103.394,45.7188 105.5,43.5 Z"/></g>
<g><path style="opacity:1" fill="#86855d" d="M 87.5,79.5 C 88.7251,80.1522 89.3917,81.3189 89.5,83C 89.2115,85.187 88.8782,87.3537 88.5,89.5C 88.1583,90.3382 87.4916,90.6716 86.5,90.5C 86.3227,86.7657 86.6561,83.0991 87.5,79.5 Z"/></g>
<g><path style="opacity:1" fill="#f3f0ae" d="M 28.5,58.5 C 30.1667,59.1667 31.8333,59.8333 33.5,60.5C 32.5,60.5 31.5,60.5 30.5,60.5C 30.3505,61.552 30.5172,62.552 31,63.5C 32.0495,62.4829 33.2161,62.3162 34.5,63C 32.1407,64.2425 30.1407,65.7425 28.5,67.5C 26.631,69.6353 25.9644,72.3019 26.5,75.5C 28.8333,75.5 31.1667,75.5 33.5,75.5C 31.9628,78.0673 29.7961,78.734 27,77.5C 26.5,78 26,78.5 25.5,79C 27.056,80.599 28.7227,82.099 30.5,83.5C 31.6474,85.7649 31.8141,88.0982 31,90.5C 30.6667,90.1667 30.3333,89.8333 30,89.5C 29.2904,90.9733 28.1238,91.6399 26.5,91.5C 26.5,92.8333 26.5,94.1667 26.5,95.5C 25.5119,100.64 25.1786,105.974 25.5,111.5C 23.8563,106.41 22.8563,101.077 22.5,95.5C 21.5104,101.31 21.1771,107.31 21.5,113.5C 20.8334,107.654 20.1668,101.654 19.5,95.5C 18.5052,100.792 18.1718,106.125 18.5,111.5C 17.5,111.5 16.5,111.5 15.5,111.5C 12.7703,102.47 12.9369,93.4698 16,84.5C 20.9299,76.5433 23.7632,67.8766 24.5,58.5C 25.8333,58.5 27.1667,58.5 28.5,58.5 Z"/></g>
<g><path style="opacity:1" fill="#f1edd0" d="M 95.5,60.5 C 95.5417,62.8489 94.3751,64.1822 92,64.5C 89.7327,62.7421 87.2327,62.2421 84.5,63C 87.0724,63.4315 88.4057,64.9315 88.5,67.5C 88.5,70.1667 88.5,72.8333 88.5,75.5C 89.8333,75.5 91.1667,75.5 92.5,75.5C 91.3915,76.29 90.0581,76.79 88.5,77C 87.7476,77.6708 87.4142,78.5041 87.5,79.5C 86.6561,83.0991 86.3227,86.7657 86.5,90.5C 84.269,93.2765 81.9357,93.6099 79.5,91.5C 78.1579,88.8342 76.3245,86.5008 74,84.5C 73.8333,84.8333 73.6667,85.1667 73.5,85.5C 75.2812,88.0912 77.2812,90.4245 79.5,92.5C 79.7148,94.1788 79.0481,95.1788 77.5,95.5C 76.3646,93.7868 74.698,93.1201 72.5,93.5C 73.8993,94.8897 75.5659,95.8897 77.5,96.5C 79.0147,98.2074 80.348,100.207 81.5,102.5C 81.1373,103.183 80.8039,103.85 80.5,104.5C 80.1667,104.5 79.8333,104.5 79.5,104.5C 77.073,101.986 74.4063,101.986 71.5,104.5C 70.1502,103.05 68.4835,102.383 66.5,102.5C 66.5,101.833 66.5,101.167 66.5,100.5C 79.8333,99.8333 79.8333,99.1667 66.5,98.5C 65.6648,91.4802 64.6648,84.4802 63.5,77.5C 63.5,75.5 63.5,73.5 63.5,71.5C 63.5,69.5 63.5,67.5 63.5,65.5C 64.2891,65.2172 64.9558,64.7172 65.5,64C 72.9143,63.4405 80.2477,62.6071 87.5,61.5C 90.1667,61.1667 92.8333,60.8333 95.5,60.5 Z"/></g>
<g><path style="opacity:1" fill="#39361e" d="M 79.5,91.5 C 79.5,91.8333 79.5,92.1667 79.5,92.5C 77.2812,90.4245 75.2812,88.0912 73.5,85.5C 73.6667,85.1667 73.8333,84.8333 74,84.5C 76.3245,86.5008 78.1579,88.8342 79.5,91.5 Z"/></g>
<g><path style="opacity:1" fill="#da8674" d="M 71.5,74.5 C 71.8499,72.3742 71.8499,70.0408 71.5,67.5C 72.5832,67.4606 73.5832,67.1272 74.5,66.5C 75.7376,70.3107 76.4042,70.3107 76.5,66.5C 79.7421,66.5712 82.5755,67.5712 85,69.5C 85.3076,68.6919 85.8076,68.0253 86.5,67.5C 87.48,70.0865 87.8134,72.7531 87.5,75.5C 84.8127,75.6641 82.146,75.4974 79.5,75C 77.9391,74.6824 76.7724,73.8491 76,72.5C 75.7508,73.624 75.2508,74.624 74.5,75.5C 73.5832,74.8728 72.5832,74.5394 71.5,74.5 Z"/></g>
<g><path style="opacity:1" fill="#c35752" d="M 71.5,67.5 C 71.8499,70.0408 71.8499,72.3742 71.5,74.5C 70.1417,75.6256 68.8084,75.6256 67.5,74.5C 68.376,73.7492 69.376,73.2492 70.5,73C 68.2031,71.7367 67.3698,69.9034 68,67.5C 69.1455,66.3157 70.3121,66.3157 71.5,67.5 Z"/></g>
<g><path style="opacity:1" fill="#969573" d="M 80.5,81.5 C 81.9599,83.4628 83.6266,85.2962 85.5,87C 84.9288,88.2051 84.2621,89.3717 83.5,90.5C 81.8986,87.6957 80.8986,84.6957 80.5,81.5 Z"/></g>
<g><path style="opacity:1" fill="#f0eeb2" d="M 108.5,84.5 C 109.736,86.649 110.736,88.9823 111.5,91.5C 109.744,92.5521 109.077,94.2188 109.5,96.5C 106.833,96.5 104.167,96.5 101.5,96.5C 101.196,97.1499 100.863,97.8165 100.5,98.5C 103.306,99.1676 105.972,99.8343 108.5,100.5C 104.958,100.187 101.625,100.521 98.5,101.5C 97.7172,99.672 96.3839,98.3387 94.5,97.5C 94.8333,96.1667 95.1667,94.8333 95.5,93.5C 97.9635,91.5389 100.297,89.3722 102.5,87C 99.5356,87.7719 97.2023,89.6052 95.5,92.5C 95.1667,92.5 94.8333,92.5 94.5,92.5C 91.1667,94.1667 89.1667,93.1667 88.5,89.5C 88.8782,87.3537 89.2115,85.187 89.5,83C 89.3917,81.3189 88.7251,80.1522 87.5,79.5C 87.4142,78.5041 87.7476,77.6708 88.5,77C 90.0581,76.79 91.3915,76.29 92.5,75.5C 93.0431,75.44 93.3764,75.1067 93.5,74.5C 92.624,73.7492 91.624,73.2492 90.5,73C 92.9193,71.4912 93.9193,69.3245 93.5,66.5C 91.7085,66.366 90.0418,66.6993 88.5,67.5C 88.4057,64.9315 87.0724,63.4315 84.5,63C 87.2327,62.2421 89.7327,62.7421 92,64.5C 94.3751,64.1822 95.5417,62.8489 95.5,60.5C 97.5,60.1667 99.5,59.8333 101.5,59.5C 102.43,63.7962 103.263,68.1296 104,72.5C 105.803,76.3703 107.303,80.3703 108.5,84.5 Z"/></g>
<g><path style="opacity:1" fill="#f4fa9a" d="M 108.5,84.5 C 108.5,86.1667 108.5,87.8333 108.5,89.5C 105.832,89.6663 103.498,90.6663 101.5,92.5C 101.167,92.1667 100.833,91.8333 100.5,91.5C 102.559,90.0488 103.559,88.0488 103.5,85.5C 101.833,85.5 100.167,85.5 98.5,85.5C 97.0094,79.4463 98.0094,73.7796 101.5,68.5C 102.314,70.7662 102.814,73.0995 103,75.5C 104.688,78.6464 106.521,81.6464 108.5,84.5 Z"/></g>
<g><path style="opacity:1" fill="#565638" d="M 94.5,82.5 C 95.2807,85.6979 94.4474,88.6979 92,91.5C 91.9031,88.2844 92.7364,85.2844 94.5,82.5 Z"/></g>
<g><path style="opacity:1" fill="#5a6349" d="M 72.5,93.5 C 69.538,93.8833 68.538,92.8833 69.5,90.5C 70.8549,91.1882 71.8549,92.1882 72.5,93.5 Z"/></g>
<g><path style="opacity:1" fill="#463d1e" d="M 95.5,93.5 C 95.5,93.1667 95.5,92.8333 95.5,92.5C 97.2023,89.6052 99.5356,87.7719 102.5,87C 100.297,89.3722 97.9635,91.5389 95.5,93.5 Z"/></g>
<g><path style="opacity:1" fill="#676048" d="M 72.5,93.5 C 74.698,93.1201 76.3646,93.7868 77.5,95.5C 77.5,95.8333 77.5,96.1667 77.5,96.5C 75.5659,95.8897 73.8993,94.8897 72.5,93.5 Z"/></g>
<g><path style="opacity:1" fill="#c15552" d="M 59.5,76.5 C 60.1229,83.2547 59.4563,89.588 57.5,95.5C 57.6972,88.9744 58.3639,82.641 59.5,76.5 Z"/></g>
<g><path style="opacity:1" fill="#f4ee94" d="M 88.5,89.5 C 89.1667,93.1667 91.1667,94.1667 94.5,92.5C 94.2381,94.5638 93.0714,95.8971 91,96.5C 88.3592,91.2076 85.8592,91.3743 83.5,97C 83.9054,97.9454 84.572,98.6121 85.5,99C 82.894,100.65 82.894,102.15 85.5,103.5C 83.8828,104.038 82.2161,104.371 80.5,104.5C 80.8039,103.85 81.1373,103.183 81.5,102.5C 80.348,100.207 79.0147,98.2074 77.5,96.5C 77.5,96.1667 77.5,95.8333 77.5,95.5C 79.0481,95.1788 79.7148,94.1788 79.5,92.5C 79.5,92.1667 79.5,91.8333 79.5,91.5C 81.9357,93.6099 84.269,93.2765 86.5,90.5C 87.4916,90.6716 88.1583,90.3382 88.5,89.5 Z"/></g>
<g><path style="opacity:1" fill="#695c32" d="M 101.5,96.5 C 100.033,97.2916 98.6998,97.2916 97.5,96.5C 99.9974,94.5148 102.831,93.1815 106,92.5C 106.5,92.8333 107,93.1667 107.5,93.5C 105.406,94.5176 103.406,95.5176 101.5,96.5 Z"/></g>
<g><path style="opacity:1" fill="#f7e557" d="M 94.5,92.5 C 94.8333,92.5 95.1667,92.5 95.5,92.5C 95.5,92.8333 95.5,93.1667 95.5,93.5C 95.1667,94.8333 94.8333,96.1667 94.5,97.5C 92.744,98.5521 92.0773,100.219 92.5,102.5C 91.5,102.5 90.5,102.5 89.5,102.5C 89.2761,100.954 88.9427,99.287 88.5,97.5C 87.1993,99.444 86.1993,101.444 85.5,103.5C 82.894,102.15 82.894,100.65 85.5,99C 84.572,98.6121 83.9054,97.9454 83.5,97C 85.8592,91.3743 88.3592,91.2076 91,96.5C 93.0714,95.8971 94.2381,94.5638 94.5,92.5 Z"/></g>
<g><path style="opacity:1" fill="#6b5201" d="M 22.5,95.5 C 22.5,101.167 22.5,106.833 22.5,112.5C 26.7016,112.183 30.7016,112.517 34.5,113.5C 30.1667,113.5 25.8333,113.5 21.5,113.5C 21.1771,107.31 21.5104,101.31 22.5,95.5 Z"/></g>
<g><path style="opacity:1" fill="#6b6c4d" d="M 66.5,98.5 C 79.8333,99.1667 79.8333,99.8333 66.5,100.5C 66.5,99.8333 66.5,99.1667 66.5,98.5 Z"/></g>
<g><path style="opacity:1" fill="#765f3d" d="M 49.5,95.5 C 51.4461,100.396 52.1128,105.729 51.5,111.5C 51.3059,113.912 49.9726,114.912 47.5,114.5C 44.7131,113.523 41.7131,113.19 38.5,113.5C 41.9619,112.518 45.6286,112.185 49.5,112.5C 49.5,106.833 49.5,101.167 49.5,95.5 Z"/></g>
<g><path style="opacity:1" fill="#b64d3c" d="M 63.5,77.5 C 64.6648,84.4802 65.6648,91.4802 66.5,98.5C 66.5,99.1667 66.5,99.8333 66.5,100.5C 66.5,101.167 66.5,101.833 66.5,102.5C 67.7033,109.736 68.3699,117.069 68.5,124.5C 68.1667,124.5 67.8333,124.5 67.5,124.5C 65.2688,108.961 63.9355,93.2941 63.5,77.5 Z"/></g>
<g><path style="opacity:1" fill="#91673a" d="M 85.5,103.5 C 85.0679,104.71 84.4013,105.71 83.5,106.5C 80.7131,105.523 77.7131,105.19 74.5,105.5C 75.9187,104.549 77.5853,104.216 79.5,104.5C 79.8333,104.5 80.1667,104.5 80.5,104.5C 82.2161,104.371 83.8828,104.038 85.5,103.5 Z"/></g>
<g><path style="opacity:1" fill="#f5f78c" d="M 111.5,91.5 C 111.5,95.8333 111.5,100.167 111.5,104.5C 109.955,105.23 109.122,106.563 109,108.5C 108.667,107.5 108.333,106.5 108,105.5C 107.29,106.973 106.124,107.64 104.5,107.5C 104.5,106.5 104.5,105.5 104.5,104.5C 101.5,104.5 98.5,104.5 95.5,104.5C 93.4352,104.483 91.4352,104.15 89.5,103.5C 89.5,103.167 89.5,102.833 89.5,102.5C 90.5,102.5 91.5,102.5 92.5,102.5C 92.0773,100.219 92.744,98.5521 94.5,97.5C 96.3839,98.3387 97.7172,99.672 98.5,101.5C 99.964,102.16 101.631,102.493 103.5,102.5C 105.64,102.444 107.306,101.777 108.5,100.5C 105.972,99.8343 103.306,99.1676 100.5,98.5C 100.863,97.8165 101.196,97.1499 101.5,96.5C 104.167,96.5 106.833,96.5 109.5,96.5C 109.077,94.2188 109.744,92.5521 111.5,91.5 Z"/></g>
<g><path style="opacity:1" fill="#7c764a" d="M 108.5,100.5 C 107.306,101.777 105.64,102.444 103.5,102.5C 101.631,102.493 99.964,102.16 98.5,101.5C 101.625,100.521 104.958,100.187 108.5,100.5 Z"/></g>
<g><path style="opacity:1" fill="#582a10" d="M 74.5,105.5 C 77.7131,105.19 80.7131,105.523 83.5,106.5C 79.9359,107.423 76.2693,107.756 72.5,107.5C 72.5,106.167 73.1667,105.5 74.5,105.5 Z"/></g>
<g><path style="opacity:1" fill="#6c3e1d" d="M 89.5,103.5 C 91.4352,104.15 93.4352,104.483 95.5,104.5C 97.6979,105.165 100.031,105.832 102.5,106.5C 102.376,107.107 102.043,107.44 101.5,107.5C 98.4816,107.665 95.4816,107.498 92.5,107C 90.9371,106.241 89.9371,105.074 89.5,103.5 Z"/></g>
<g><path style="opacity:1" fill="#f9f8e8" d="M 47.5,95.5 C 48.1128,101.271 47.4461,106.604 45.5,111.5C 41.0886,109.87 36.422,108.87 31.5,108.5C 31.5,104.167 31.5,99.8333 31.5,95.5C 36.8426,94.2963 42.1759,94.2963 47.5,95.5 Z"/></g>
<g><path style="opacity:1" fill="#e9c618" d="M 89.5,102.5 C 89.5,102.833 89.5,103.167 89.5,103.5C 89.9371,105.074 90.9371,106.241 92.5,107C 95.4816,107.498 98.4816,107.665 101.5,107.5C 101.737,108.791 101.404,109.791 100.5,110.5C 98.7245,110.206 96.7245,110.04 94.5,110C 92.5566,108.445 90.3899,107.278 88,106.5C 83.9219,109.146 79.4219,110.479 74.5,110.5C 73.0937,110.027 72.427,109.027 72.5,107.5C 76.2693,107.756 79.9359,107.423 83.5,106.5C 84.4013,105.71 85.0679,104.71 85.5,103.5C 86.1993,101.444 87.1993,99.444 88.5,97.5C 88.9427,99.287 89.2761,100.954 89.5,102.5 Z"/></g>
<g><path style="opacity:1" fill="#d5b63c" d="M 22.5,95.5 C 22.8563,101.077 23.8563,106.41 25.5,111.5C 26.5,111.5 27.5,111.5 28.5,111.5C 34.1667,111.5 39.8333,111.5 45.5,111.5C 47.4461,106.604 48.1128,101.271 47.5,95.5C 48.1667,95.5 48.8333,95.5 49.5,95.5C 49.5,101.167 49.5,106.833 49.5,112.5C 45.6286,112.185 41.9619,112.518 38.5,113.5C 37.1667,113.5 35.8333,113.5 34.5,113.5C 30.7016,112.517 26.7016,112.183 22.5,112.5C 22.5,106.833 22.5,101.167 22.5,95.5 Z"/></g>
<g><path style="opacity:1" fill="#fcfbf1" d="M 26.5,95.5 C 27.5,95.5 28.5,95.5 29.5,95.5C 29.7825,100.927 29.4491,106.26 28.5,111.5C 27.5,111.5 26.5,111.5 25.5,111.5C 25.1786,105.974 25.5119,100.64 26.5,95.5 Z"/></g>
<g><path style="opacity:1" fill="#d06123" d="M 100.5,110.5 C 99.1466,112.183 97.4799,113.516 95.5,114.5C 90.1667,114.5 84.8333,114.5 79.5,114.5C 77.8388,113.203 76.1722,111.87 74.5,110.5C 79.4219,110.479 83.9219,109.146 88,106.5C 90.3899,107.278 92.5566,108.445 94.5,110C 96.7245,110.04 98.7245,110.206 100.5,110.5 Z"/></g>
<g><path style="opacity:1" fill="#f4eea7" d="M 66.5,102.5 C 68.4835,102.383 70.1502,103.05 71.5,104.5C 74.4063,101.986 77.073,101.986 79.5,104.5C 77.5853,104.216 75.9187,104.549 74.5,105.5C 73.1667,105.5 72.5,106.167 72.5,107.5C 72.427,109.027 73.0937,110.027 74.5,110.5C 76.1722,111.87 77.8388,113.203 79.5,114.5C 79.5774,115.75 80.244,116.583 81.5,117C 86.4205,117.963 91.0871,117.463 95.5,115.5C 95.7778,117.346 95.1112,118.68 93.5,119.5C 88.636,118.188 83.8027,118.188 79,119.5C 78.315,115.101 76.1483,113.934 72.5,116C 71.7024,122.267 71.0358,128.6 70.5,135C 70.6083,136.681 71.2749,137.848 72.5,138.5C 71.791,139.404 70.791,139.737 69.5,139.5C 69.6625,134.453 69.3292,129.453 68.5,124.5C 68.3699,117.069 67.7033,109.736 66.5,102.5 Z"/></g>
<g><path style="opacity:1" fill="#ece8c0" d="M 21.5,113.5 C 25.8333,113.5 30.1667,113.5 34.5,113.5C 35.8333,113.5 37.1667,113.5 38.5,113.5C 41.7131,113.19 44.7131,113.523 47.5,114.5C 37.6182,115.297 27.9515,115.964 18.5,116.5C 17.2632,115.035 16.2632,113.368 15.5,111.5C 16.5,111.5 17.5,111.5 18.5,111.5C 18.1718,106.125 18.5052,100.792 19.5,95.5C 20.1668,101.654 20.8334,107.654 21.5,113.5 Z"/></g>
<g><path style="opacity:1" fill="#f6f6b0" d="M 51.5,111.5 C 52.5,111.5 53.5,111.5 54.5,111.5C 54.5,116.833 54.5,122.167 54.5,127.5C 54.5,131.167 54.5,134.833 54.5,138.5C 45.3834,135.176 36.3834,131.342 27.5,127C 23.9155,123.922 20.9155,120.422 18.5,116.5C 27.9515,115.964 37.6182,115.297 47.5,114.5C 49.9726,114.912 51.3059,113.912 51.5,111.5 Z"/></g>
<g><path style="opacity:1" fill="#f5f39a" d="M 95.5,104.5 C 98.5,104.5 101.5,104.5 104.5,104.5C 104.5,105.5 104.5,106.5 104.5,107.5C 106.124,107.64 107.29,106.973 108,105.5C 108.333,106.5 108.667,107.5 109,108.5C 109.122,106.563 109.955,105.23 111.5,104.5C 111.5,106.833 111.5,109.167 111.5,111.5C 107.419,116.084 103.086,120.584 98.5,125C 89.4832,128.856 80.8166,133.356 72.5,138.5C 71.2749,137.848 70.6083,136.681 70.5,135C 71.0358,128.6 71.7024,122.267 72.5,116C 76.1483,113.934 78.315,115.101 79,119.5C 83.8027,118.188 88.636,118.188 93.5,119.5C 95.1112,118.68 95.7778,117.346 95.5,115.5C 95.5,115.167 95.5,114.833 95.5,114.5C 97.4799,113.516 99.1466,112.183 100.5,110.5C 101.404,109.791 101.737,108.791 101.5,107.5C 102.043,107.44 102.376,107.107 102.5,106.5C 100.031,105.832 97.6979,105.165 95.5,104.5 Z"/></g>
<g><path style="opacity:1" fill="#c11718" d="M 63.5,71.5 C 63.5,73.5 63.5,75.5 63.5,77.5C 63.9355,93.2941 65.2688,108.961 67.5,124.5C 67.5,125.5 67.5,126.5 67.5,127.5C 66.5,127.5 65.5,127.5 64.5,127.5C 64.8282,122.125 64.4948,116.792 63.5,111.5C 62.2929,117.843 62.2929,124.176 63.5,130.5C 62.5,130.5 61.5,130.5 60.5,130.5C 61.6856,135.97 62.8523,136.303 64,131.5C 64.6667,134.5 64.6667,137.5 64,140.5C 63.4768,138.777 62.4768,137.444 61,136.5C 59.518,138.112 57.6847,139.112 55.5,139.5C 56.5171,136.973 56.5171,134.473 55.5,132C 56.5089,130.832 57.5089,129.665 58.5,128.5C 56.6124,123.062 55.9458,117.395 56.5,111.5C 57.4881,106.36 57.8214,101.026 57.5,95.5C 59.4563,89.588 60.1229,83.2547 59.5,76.5C 60.4511,75.0813 60.7845,73.4147 60.5,71.5C 61.5,71.5 62.5,71.5 63.5,71.5 Z"/></g>
<g><path style="opacity:1" fill="#bd2923" d="M 56.5,111.5 C 55.9458,117.395 56.6124,123.062 58.5,128.5C 57.5089,129.665 56.5089,130.832 55.5,132C 56.5171,134.473 56.5171,136.973 55.5,139.5C 57.6847,139.112 59.518,138.112 61,136.5C 62.4768,137.444 63.4768,138.777 64,140.5C 64.6667,137.5 64.6667,134.5 64,131.5C 62.8523,136.303 61.6856,135.97 60.5,130.5C 61.5,130.5 62.5,130.5 63.5,130.5C 62.2929,124.176 62.2929,117.843 63.5,111.5C 64.4948,116.792 64.8282,122.125 64.5,127.5C 65.5,127.5 66.5,127.5 67.5,127.5C 67.5,126.5 67.5,125.5 67.5,124.5C 67.8333,124.5 68.1667,124.5 68.5,124.5C 69.3292,129.453 69.6625,134.453 69.5,139.5C 70.791,139.737 71.791,139.404 72.5,138.5C 80.8166,133.356 89.4832,128.856 98.5,125C 103.086,120.584 107.419,116.084 111.5,111.5C 111.736,114.226 110.903,116.559 109,118.5C 106.167,121.333 103.333,124.167 100.5,127C 91.6257,131.937 82.6257,136.604 73.5,141C 70.0067,143.332 66.6734,145.832 63.5,148.5C 63.6882,146.897 63.1882,145.563 62,144.5C 61.6667,144.833 61.3333,145.167 61,145.5C 59.5104,143.442 57.5104,142.109 55,141.5C 54.5172,140.552 54.3505,139.552 54.5,138.5C 54.5,134.833 54.5,131.167 54.5,127.5C 55.1667,122.167 55.8333,116.833 56.5,111.5 Z"/></g>
<g><path style="opacity:1" fill="#b53a3e" d="M 79.5,114.5 C 84.8333,114.5 90.1667,114.5 95.5,114.5C 95.5,114.833 95.5,115.167 95.5,115.5C 91.0871,117.463 86.4205,117.963 81.5,117C 80.244,116.583 79.5774,115.75 79.5,114.5 Z"/></g>
<g><path style="opacity:1" fill="#ebebe7" d="M 111.5,111.5 C 111.833,111.5 112.167,111.5 112.5,111.5C 113.122,112.627 113.955,113.627 115,114.5C 115.908,112.561 117.408,111.561 119.5,111.5C 118.565,119.42 114.565,125.086 107.5,128.5C 106.754,129.736 106.421,131.07 106.5,132.5C 104.857,132.48 103.524,133.147 102.5,134.5C 100.249,133.135 98.2492,133.469 96.5,135.5C 94.4841,134.294 92.4841,134.294 90.5,135.5C 90.7093,136.086 91.0426,136.586 91.5,137C 89.8333,137.333 88.1667,137.667 86.5,138C 87.3366,139.011 87.67,140.178 87.5,141.5C 79.6517,141.851 73.6517,145.351 69.5,152C 66.5184,152.498 63.5184,152.665 60.5,152.5C 60.5,151.5 60.5,150.5 60.5,149.5C 61.791,149.737 62.791,149.404 63.5,148.5C 66.6734,145.832 70.0067,143.332 73.5,141C 82.6257,136.604 91.6257,131.937 100.5,127C 103.333,124.167 106.167,121.333 109,118.5C 110.903,116.559 111.736,114.226 111.5,111.5 Z"/></g>
</svg>
